<!DOCTYPE svg PUBLIC "-//W3C//DTD SVG 20010904//EN" "http://www.w3.org/TR/2001/REC-SVG-20010904/DTD/svg10.dtd">
<svg version="1.0" xmlns="http://www.w3.org/2000/svg" width="603px" height="635px" viewBox="0 0 6030 6350" preserveAspectRatio="xMidYMid meet">
<g id="layer101" fill="#202237" stroke="none">
 <path d="M4020 3725 l0 -75 -290 0 -290 0 0 -415 0 -415 90 0 90 0 0 330 0 330 160 0 160 0 0 -330 0 -330 95 0 95 0 0 330 0 330 35 0 35 0 0 160 0 160 -90 0 -90 0 0 -75z"/>
 <path d="M1850 3235 l0 -415 295 0 295 0 0 80 0 80 -205 0 -205 0 0 80 0 80 200 0 200 0 0 85 0 85 -200 0 -200 0 0 85 0 85 205 0 205 0 0 85 0 85 -295 0 -295 0 0 -415z"/>
 <path d="M2590 3236 l0 -416 259 0 259 0 53 28 c43 22 59 38 81 81 50 96 28 216 -50 268 l-32 21 34 22 c42 26 70 69 87 133 25 100 -22 200 -115 250 -39 21 -56 22 -308 25 l-268 3 0 -415z m442 243 c70 -19 87 -104 31 -149 -23 -18 -41 -20 -154 -20 l-129 0 0 90 0 90 108 0 c59 0 124 -5 144 -11z m24 -362 c31 -37 31 -81 -1 -112 -23 -24 -30 -25 -150 -25 l-125 0 0 86 0 86 126 -3 c123 -4 126 -5 150 -32z"/>
 </g>
<g id="layer102" fill="#b32228" stroke="none">
 <path d="M2769 6321 c-42 -16 -148 -71 -235 -123 -87 -52 -179 -105 -204 -118 -25 -12 -137 -78 -250 -145 -113 -67 -236 -139 -275 -160 -38 -20 -166 -95 -285 -165 -118 -70 -237 -139 -265 -153 -27 -14 -125 -70 -217 -125 -91 -55 -202 -120 -245 -143 -356 -192 -486 -316 -557 -531 l-26 -77 0 -1353 c0 -1245 3 -1428 24 -1428 2 0 290 165 640 368 l636 367 2 710 3 710 24 60 c40 99 112 161 341 291 107 62 364 210 570 330 206 119 390 223 408 231 l32 13 0 735 0 735 -22 0 c-13 -1 -57 -14 -99 -29z"/>
 </g>
<g id="layer103" fill="#2544c3" stroke="none">
 <path d="M3130 5613 l1 -738 177 -101 c762 -433 1008 -580 1068 -639 60 -59 95 -125 108 -202 2 -15 5 -334 5 -708 l1 -680 637 -367 c435 -251 641 -364 648 -357 7 7 11 463 13 1385 l2 1375 -25 77 c-72 215 -202 338 -558 531 -43 23 -155 88 -250 145 -95 56 -207 122 -250 145 -43 23 -160 91 -260 150 -100 60 -213 126 -252 146 -38 21 -162 93 -275 160 -113 67 -225 133 -250 145 -25 13 -117 66 -204 118 -134 80 -289 152 -326 152 -6 0 -10 -267 -10 -737z"/>
 </g>
<g id="layer104" fill="#ffaa07" stroke="none">
 <path d="M4354 2202 c-23 -20 -129 -87 -235 -148 -107 -62 -363 -210 -569 -330 -206 -120 -404 -228 -440 -241 -77 -26 -160 -25 -235 4 -27 11 -219 117 -425 237 -206 120 -462 268 -568 330 -107 61 -211 126 -232 144 l-39 32 -632 -365 c-348 -201 -635 -368 -638 -371 -3 -3 30 -40 74 -83 78 -75 186 -146 378 -250 43 -23 155 -88 250 -145 95 -56 207 -122 250 -145 43 -23 160 -91 260 -150 100 -60 214 -126 252 -146 39 -21 162 -93 275 -160 113 -67 221 -130 240 -140 19 -9 115 -64 212 -122 236 -140 277 -153 468 -153 191 0 232 13 468 153 97 58 193 113 212 122 19 10 127 73 240 140 113 67 237 139 275 160 39 20 152 86 252 146 100 59 217 127 260 150 43 23 170 97 283 164 113 67 225 132 250 145 130 65 270 160 348 234 66 64 80 82 70 92 -7 6 -278 165 -603 352 -324 187 -606 349 -625 360 l-35 20 -41 -36z"/>
 </g>

</svg>